<svg width="453" height="212" viewBox="0 0 453 212" fill="none" xmlns="http://www.w3.org/2000/svg">
<g clip-path="url(#clip0_5_15)">
<mask id="mask0_5_15" style="mask-type:alpha" maskUnits="userSpaceOnUse" x="-1" y="1" width="454" height="211">
<path d="M181.328 207L181.04 100.152L129.2 187.128H103.856L52.016 102.456V207H-0.399999V5.39999H46.544L117.392 121.752L186.512 5.39999H233.456L234.032 207H181.328ZM346.609 1.36799C366.961 1.36799 385.201 5.87999 401.329 14.904C417.457 23.736 430.033 36.12 439.057 52.056C448.273 67.992 452.881 86.04 452.881 106.2C452.881 126.36 448.273 144.408 439.057 160.344C430.033 176.28 417.457 188.76 401.329 197.784C385.201 206.616 366.961 211.032 346.609 211.032C327.985 211.032 311.185 207.768 296.209 201.24C281.425 194.712 269.137 185.304 259.345 173.016L295.345 140.184C308.785 155.928 324.913 163.8 343.729 163.8C355.825 163.8 366.097 160.536 374.545 154.008C383.185 147.288 389.137 138.072 392.401 126.36H319.537V84.312H391.825C388.561 73.176 382.705 64.44 374.257 58.104C365.809 51.768 355.633 48.6 343.729 48.6C324.913 48.6 308.785 56.472 295.345 72.216L259.345 39.384C269.137 27.096 281.425 17.688 296.209 11.16C311.185 4.63199 327.985 1.36799 346.609 1.36799Z" fill="black"/>
</mask>
<g mask="url(#mask0_5_15)">
<rect x="-15" y="-90" width="470" height="194" fill="#FC808B"/>
<rect x="250" y="-130" width="205" height="234" fill="#58DA9F"/>
<rect x="-15" y="103" width="263" height="230" fill="#F8D76F"/>
<rect x="254" y="103" width="201" height="217" fill="#666666"/>
</g>
</g>
<defs>
<clipPath id="clip0_5_15">
<rect width="453" height="212" fill="white"/>
</clipPath>
</defs>
</svg>
